<svg width="30" height="30" viewBox="0 0 30 30" fill="none" xmlns="http://www.w3.org/2000/svg">
<path d="M14.9941 0C6.72656 0 0 6.72852 0 15C0 18.0996 0.933594 21.0605 2.70703 23.5801L0.980469 28.7266C0.919922 28.9043 0.964844 29.1035 1.09766 29.2363C1.23047 29.3711 1.42773 29.4199 1.60547 29.3613L6.95312 27.6543C9.35742 29.1895 12.1367 30 15.0059 30C23.2734 30 30 23.2715 30 15C30 6.72852 23.2734 5.82077e-09 15.0312 0.00195301L15.0234 0C15.0137 0 15.0039 0 14.9941 0ZM14.9941 1H15.0059C22.7227 1 29 7.28125 29 15C29 22.7188 22.7227 29 15.0059 29C12.252 29 9.58789 28.2012 7.30469 26.6875C7.2207 26.6348 7.125 26.6055 7.0293 26.6055C6.97656 26.6055 6.92578 26.6133 6.875 26.6289L2.24219 28.1094L3.73438 23.6582C3.78711 23.5039 3.75977 23.334 3.66406 23.2031C1.92188 20.8105 1 17.9727 1 15C1 7.28125 7.27734 1 14.9941 1ZM15.6035 2.97461C14.4668 2.9375 13.3262 3.06445 12.2129 3.35938C11.9453 3.42773 11.7871 3.70117 11.8574 3.96875C11.9258 4.23633 12.1973 4.39648 12.4668 4.32617C14.5059 3.79102 16.6465 3.85938 18.6562 4.52734C19.1758 4.69922 19.6816 4.91211 20.1641 5.15625C20.2383 5.19336 20.3164 5.21094 20.3906 5.21094C20.5742 5.21094 20.75 5.10938 20.8379 4.93555C20.9629 4.68945 20.8652 4.38867 20.6172 4.26367C20.0918 3.99609 19.5391 3.76562 18.9727 3.57812C17.875 3.21289 16.7422 3.01172 15.6035 2.97461ZM22.3203 5.49414C22.1914 5.50781 22.0703 5.57031 21.9844 5.67773C21.8105 5.89258 21.8438 6.20703 22.0605 6.38086C22.3672 6.62891 22.6641 6.89648 22.9434 7.17578C23.0391 7.27344 23.168 7.32227 23.2969 7.32227C23.4238 7.32227 23.5527 7.27539 23.6484 7.17773C23.8457 6.98242 23.8457 6.66602 23.6504 6.4707C23.3477 6.16602 23.0234 5.87305 22.6875 5.60156C22.5801 5.51562 22.4473 5.48047 22.3203 5.49414ZM10.1504 7.5C9.46484 7.5 8.85352 7.72461 8.43945 8.14844C8.01172 8.58398 7.00781 9.60352 7.00781 11.6094C7.00781 13.3164 8.01758 14.9531 8.64258 15.8105L8.71094 15.9062C10.5957 18.6367 12.9297 20.6797 15.2852 21.6543C17.3711 22.5195 18.4883 22.75 19.2578 22.75C19.5898 22.75 19.8555 22.707 20.1094 22.6543C21.2344 22.4102 22.6348 21.5762 23.0137 20.5078C23.3281 19.6172 23.4062 18.666 23.1953 18.2988C23.0469 18.0371 22.7949 17.916 22.4746 17.7617L22.2656 17.6582C22.2422 17.6484 20.0586 16.5605 19.6406 16.4141C19.0469 16.1895 18.4961 16.3594 18.1328 16.873L17.9688 17.1016C17.6699 17.5234 17.3848 17.9199 17.1641 18.1602C17.0957 18.2324 16.9473 18.2422 16.8105 18.1855L16.6875 18.1348C16.1973 17.9375 15.1797 17.5254 13.9199 16.4043C12.9082 15.5039 12.1855 14.3652 11.9219 13.9199C11.9004 13.8828 11.8945 13.8613 11.8906 13.8594C11.9043 13.8262 11.9707 13.75 12.0312 13.6797C12.1289 13.5547 12.2285 13.4512 12.3262 13.3496C12.4102 13.2578 12.4941 13.168 12.5801 13.0684L12.6211 13.0234C12.7949 12.8223 12.9316 12.6641 13.0645 12.377C13.3262 11.873 13.0938 11.3926 13.0176 11.2344C12.959 11.1074 12.5039 10.0039 12.2031 9.27344L11.8672 8.46094C11.5449 7.69141 11.1895 7.53906 10.6152 7.51562C10.4766 7.50781 10.3223 7.5 10.1504 7.5ZM10.1504 8.5C10.3008 8.5 10.4336 8.50781 10.5645 8.51562C10.6211 8.51758 10.7422 8.52148 10.7676 8.5332C10.7715 8.53516 10.832 8.58008 10.9434 8.84375L11.2773 9.6543C11.7266 10.7441 12.0488 11.5254 12.1172 11.666C12.1777 11.793 12.1973 11.8789 12.168 11.9375C12.084 12.1133 12.0195 12.1895 11.8652 12.3672L11.8223 12.4141C11.748 12.5039 11.6719 12.584 11.5977 12.6621C11.4824 12.7832 11.3691 12.9062 11.25 13.0508C11.0742 13.2578 10.6621 13.7422 11.0566 14.4238C11.416 15.0312 12.1777 16.1914 13.252 17.1504C14.6426 18.3887 15.8125 18.8594 16.3125 19.0625L16.4238 19.1074C16.959 19.3281 17.5352 19.2246 17.8945 18.8418C18.1621 18.5527 18.4648 18.1289 18.7832 17.6816L18.9453 17.4531C19.0488 17.3066 19.1211 17.2871 19.3008 17.3555C19.582 17.4531 21.1934 18.2402 21.8164 18.5527L22.0391 18.6641C22.1426 18.7129 22.2656 18.7715 22.3105 18.7891C22.3301 18.9785 22.3047 19.5117 22.0703 20.1738C21.834 20.8438 20.7578 21.4922 19.9004 21.6758C19.3887 21.7852 18.6133 21.9512 15.6699 20.7305C13.4883 19.8281 11.3105 17.9121 9.5332 15.3379C9.48828 15.2715 9.45703 15.2266 9.42773 15.1855C8.89648 14.4609 8.00781 13.0312 8.00781 11.6094C8.00781 10.0137 8.78125 9.22656 9.1875 8.8125C9.375 8.61914 9.74609 8.5 10.1504 8.5ZM3.78125 14.4531C3.50586 14.4375 3.26953 14.6484 3.25391 14.9219C3.23633 15.1992 3.44531 15.4355 3.72266 15.4512L4.75586 15.5117C4.76562 15.5117 4.77539 15.5137 4.78711 15.5137C5.04883 15.5137 5.26953 15.3086 5.2832 15.043C5.30078 14.7676 5.0918 14.5293 4.81445 14.5137L3.78125 14.4531ZM5.07227 17.1523C5.00977 17.1406 4.94141 17.1387 4.875 17.1543L3.85938 17.3613C3.58984 17.416 3.41406 17.6816 3.4707 17.9531C3.51953 18.1895 3.72852 18.3516 3.96094 18.3516C3.99414 18.3516 4.02734 18.3477 4.0625 18.3418L5.07617 18.1328C5.3457 18.0762 5.51953 17.8125 5.46484 17.541C5.42383 17.3379 5.26367 17.1895 5.07227 17.1523ZM5.80664 19.6328C5.74219 19.6387 5.67773 19.6543 5.61523 19.6855L4.68945 20.1504C4.44336 20.2734 4.3418 20.5742 4.4668 20.8203C4.55273 20.9961 4.73047 21.0977 4.91406 21.0977C4.98828 21.0977 5.06445 21.0801 5.13672 21.0449L6.0625 20.5801C6.31055 20.457 6.41016 20.1562 6.28711 19.9082C6.19336 19.7246 6.00195 19.6211 5.80664 19.6328ZM7.34766 21.8164C7.2207 21.8086 7.08984 21.8496 6.98633 21.9434L6.21094 22.6309C6.00586 22.8125 5.98828 23.1289 6.17188 23.3359C6.26953 23.4473 6.40625 23.5039 6.54492 23.5039C6.66211 23.5039 6.78125 23.4629 6.87695 23.377L7.65039 22.6895C7.85742 22.5059 7.875 22.1895 7.69336 21.9844C7.60156 21.8809 7.47461 21.8242 7.34766 21.8164ZM9.40234 23.5488C9.21094 23.5137 9.00781 23.5918 8.89258 23.7656L8.32422 24.6309C8.17188 24.8613 8.23633 25.1699 8.4668 25.3223C8.55078 25.377 8.64648 25.4062 8.74219 25.4062C8.9043 25.4062 9.0625 25.3262 9.1582 25.1797L9.72852 24.3145C9.88086 24.084 9.81836 23.7754 9.58594 23.623C9.5293 23.5859 9.4668 23.5605 9.40234 23.5488Z" fill="#469D27"/>
</svg>
